<svg xmlns="http://www.w3.org/2000/svg" fill="none" viewBox="0 0 24 24" width="1em" height="1em"><path fill="#2D264B" fill-rule="evenodd" d="M8.436 2.757c1.023-3.586 6.105-3.586 7.128 0a2.207 2.207 0 0 0 2.659 1.534c3.617-.906 6.158 3.495 3.564 6.174a2.206 2.206 0 0 0 0 3.07c2.594 2.68.053 7.08-3.564 6.174a2.207 2.207 0 0 0-2.659 1.534c-1.023 3.586-6.105 3.586-7.128 0a2.207 2.207 0 0 0-2.659-1.534c-3.617.906-6.158-3.495-3.564-6.174a2.207 2.207 0 0 0 0-3.07c-2.594-2.68-.053-7.08 3.564-6.174a2.207 2.207 0 0 0 2.659-1.534m6.751 6.056a.75.75 0 0 1 0 1.06L9.53 15.53a.75.75 0 1 1-1.06-1.06l5.656-5.657a.75.75 0 0 1 1.061 0M9 10a1 1 0 1 1 0-2 1 1 0 0 1 0 2m6 6a1 1 0 1 1 0-2 1 1 0 0 1 0 2" clip-rule="evenodd"/></svg>