<svg xmlns="http://www.w3.org/2000/svg" fill="none" viewBox="0 0 24 24" width="1em" height="1em"><path fill="#2D264B" fill-rule="evenodd" d="M12.045 2.25c1.837 0 3.276 0 4.419.124 1.165.126 2.11.388 2.916.974a5.8 5.8 0 0 1 1.272 1.272c.586.807.848 1.75.974 2.916.124 1.143.124 2.582.124 4.419v.09c0 1.837 0 3.276-.124 4.419-.126 1.165-.388 2.11-.974 2.916a5.8 5.8 0 0 1-1.272 1.272c-.807.586-1.75.848-2.916.974-1.143.124-2.582.124-4.419.124h-.09c-1.837 0-3.276 0-4.419-.124-1.165-.126-2.11-.388-2.916-.974a5.8 5.8 0 0 1-1.272-1.272c-.586-.807-.848-1.75-.974-2.916-.124-1.143-.124-2.582-.124-4.419v-.09c0-1.837 0-3.276.124-4.419.126-1.165.388-2.11.974-2.916A5.8 5.8 0 0 1 4.62 3.348c.807-.586 1.75-.848 2.916-.974 1.143-.124 2.582-.124 4.419-.124zm3.142 6.563a.75.75 0 0 1 0 1.06L9.53 15.53a.75.75 0 0 1-1.06-1.06l5.656-5.657a.75.75 0 0 1 1.061 0M9 10a1 1 0 1 1 0-2 1 1 0 0 1 0 2m6 6a1 1 0 1 1 0-2 1 1 0 0 1 0 2" clip-rule="evenodd"/></svg>