<svg xmlns="http://www.w3.org/2000/svg" fill="none" viewBox="0 0 24 24" width="1em" height="1em"><path fill="#2D264B" d="M15 2.25a.75.75 0 0 0 0 1.5h1A4.25 4.25 0 0 1 20.25 8v1a.75.75 0 0 0 1.5 0V8A5.75 5.75 0 0 0 16 2.25zm-7 0A5.75 5.75 0 0 0 2.25 8v1a.75.75 0 0 0 1.5 0V8A4.25 4.25 0 0 1 8 3.75h1a.75.75 0 0 0 0-1.5zm-7 9a.75.75 0 0 0 0 1.5h22a.75.75 0 0 0 0-1.5zM3.75 15a.75.75 0 0 0-1.5 0v1A5.75 5.75 0 0 0 8 21.75h1a.75.75 0 0 0 0-1.5H8A4.25 4.25 0 0 1 3.75 16zm18 0a.75.75 0 0 0-1.5 0v1A4.25 4.25 0 0 1 16 20.25h-1a.75.75 0 0 0 0 1.5h1A5.75 5.75 0 0 0 21.75 16z"/></svg>