<svg xmlns="http://www.w3.org/2000/svg" fill="none" viewBox="0 0 24 24" width="1em" height="1em"><path fill="#2D264B" d="M16.276 4.064c-.603-.061-1.026.434-1.026.936v14a.75.75 0 0 0 1.5 0V5.864l.044.034c.322.26.706.644 1.276 1.22l1.397 1.41a.75.75 0 0 0 1.066-1.056L19.104 6.03c-.531-.536-.974-.984-1.371-1.303-.417-.334-.854-.588-1.387-.656zM8.75 5a.75.75 0 1 0-1.5 0v12.936l-.044-.034c-.322-.26-.706-.645-1.275-1.22l-1.398-1.41a.75.75 0 0 0-1.066 1.056l1.429 1.441c.531.537.974.984 1.371 1.303.417.334.854.588 1.387.656.651.083 1.096-.456 1.096-.98z"/></svg>