<svg xmlns="http://www.w3.org/2000/svg" fill="none" viewBox="0 0 24 24" width="1em" height="1em"><path fill="#2D264B" d="M3.963 7.77c-.188.766-.326 1.754-.517 3.13-.436 3.14-.654 4.71-.174 5.93a5 5 0 0 0 2.2 2.527C6.614 20 8.2 20 11.37 20h1.624c3.171 0 4.756 0 5.898-.643a5 5 0 0 0 2.201-2.527c.48-1.22.262-2.79-.175-5.93-.207-1.494-.351-2.532-.566-3.323l-.73.73c-1.632 1.633-2.912 2.912-4.044 3.776-1.159.884-2.251 1.404-3.517 1.404-1.265 0-2.358-.52-3.517-1.404C7.412 11.22 6.132 9.94 4.5 8.308z"/><path fill="#2D264B" d="m4.575 6.261.945.945c1.682 1.682 2.891 2.889 3.934 3.684 1.025.783 1.801 1.097 2.607 1.097s1.582-.314 2.607-1.097c1.043-.795 2.252-2.002 3.934-3.684l1.09-1.09a5 5 0 0 0-2.002-1.661C16.698 4 15.463 4 12.994 4H11.37c-2.469 0-3.703 0-4.696.455a5 5 0 0 0-2.1 1.806"/></svg>