<svg xmlns="http://www.w3.org/2000/svg" fill="none" viewBox="0 0 24 24" width="1em" height="1em"><path fill="#2D264B" d="M8.65 10.368A4.74 4.74 0 0 1 7.25 7a4.74 4.74 0 0 1 1.4-3.368 3.75 3.75 0 1 0 0 6.736"/><path fill="#2D264B" d="M8.25 7a3.75 3.75 0 1 1 7.5 0 3.75 3.75 0 0 1-7.5 0"/><path fill="#2D264B" d="M15.35 3.632c.865.86 1.4 2.052 1.4 3.368a4.74 4.74 0 0 1-1.4 3.368 3.75 3.75 0 1 0 0-6.736M5.25 16A3.75 3.75 0 0 1 9 12.25h6a3.75 3.75 0 1 1 0 7.5H9A3.75 3.75 0 0 1 5.25 16"/><path fill="#2D264B" d="M.25 15A3.75 3.75 0 0 1 4 11.25h5a4.75 4.75 0 0 0-3.873 7.5H4A3.75 3.75 0 0 1 .25 15m19.5 1a4.73 4.73 0 0 1-.877 2.75H20a3.75 3.75 0 1 0 0-7.5h-5A4.75 4.75 0 0 1 19.75 16"/></svg>