<svg xmlns="http://www.w3.org/2000/svg" fill="none" viewBox="0 0 24 24" width="1em" height="1em"><path fill="#414141" d="M12.75 7a.75.75 0 0 0-1.5 0zM12 12h-.75zm2.652-1.47a.75.75 0 1 0-1.061-1.06l.53.53zM2.532 2.664a.75.75 0 1 0 .937 1.172L3 3.25zm3.437-.828A.75.75 0 1 0 5.03.664l.469.586zm14.563 2a.75.75 0 1 0 .936-1.172L21 3.25zM18.968.664a.75.75 0 0 0-.936 1.172l.468-.586zM12 7h-.75v5h1.5V7zm2.121 3-.53-.53-2.035 2.035.53.53.53.53 2.036-2.035zM22 12h-.75A9.25 9.25 0 0 1 12 21.25v1.5c5.937 0 10.75-4.813 10.75-10.75zM12 22v-.75A9.25 9.25 0 0 1 2.75 12h-1.5c0 5.937 4.813 10.75 10.75 10.75zM2 12h.75A9.25 9.25 0 0 1 12 2.75v-1.5C6.063 1.25 1.25 6.063 1.25 12zM12 2v.75A9.25 9.25 0 0 1 21.25 12h1.5c0-5.937-4.813-10.75-10.75-10.75zM3 3.25l.469.586 2.5-2L5.5 1.25 5.031.664l-2.5 2zm18 0 .468-.586-2.5-2-.468.586-.468.586 2.5 2zm-8.914 8.786-.53-.53A.7.7 0 0 1 12.75 12h-1.5a.8.8 0 0 0 1.366.566z"/></svg>