<svg xmlns="http://www.w3.org/2000/svg" fill="none" viewBox="0 0 24 24" width="1em" height="1em"><path fill="#414141" d="M8 9a1 1 0 1 0 2 0 1 1 0 0 0-2 0m6 6a1 1 0 1 0 2 0 1 1 0 0 0-2 0m-5.53-.53a.75.75 0 0 0 1.06 1.06L9 15zm6.717-4.596a.75.75 0 0 0-1.06-1.061l.53.53zM7.104 20.975l-.342.667zm-.429-.248-.407.63zm10.65 0-.407-.63zm-.43.248.343.667zm5.325-9.223.75-.037zm0 .496-.749-.037zm-5.325-9.223.343-.667zm.43.248.407-.63zm-10.65 0 .407.63zm.43-.248-.343-.667zM1.78 11.752l.749.037zm0 .496-.75.037zM9 15l.53.53 5.657-5.656-.53-.53-.53-.531L8.47 14.47zm3 6.526v-.75c-1.287 0-2.203 0-2.933-.066-.716-.064-1.199-.186-1.62-.402l-.343.667-.342.667c.653.335 1.345.489 2.171.562.812.073 1.806.072 3.067.072zm-8.25-4.763-.65.375c.63 1.092 1.127 1.953 1.596 2.62.477.679.955 1.201 1.572 1.6l.407-.63.407-.631c-.398-.257-.746-.614-1.159-1.202-.421-.6-.88-1.392-1.524-2.507zm3.354 4.212.343-.667a4 4 0 0 1-.365-.211l-.407.63-.407.63q.24.155.494.285zm13.146-4.212-.65-.375c-.643 1.115-1.102 1.908-1.523 2.507-.414.588-.761.945-1.159 1.202l.407.63.407.63c.617-.398 1.095-.92 1.572-1.599.469-.667.965-1.528 1.596-2.62zM12 21.526v.75c1.26 0 2.255.001 3.067-.072.826-.073 1.517-.227 2.17-.562l-.342-.667-.342-.667c-.421.216-.904.338-1.62.402-.73.066-1.646.066-2.933.066zm5.325-.799-.407-.63q-.177.115-.365.21l.342.668.343.667a6 6 0 0 0 .494-.285zm2.925-13.49-.65.375c.644 1.114 1.101 1.908 1.41 2.573.302.652.438 1.131.461 1.604l.75-.037.748-.037c-.036-.733-.25-1.409-.598-2.161-.344-.74-.841-1.6-1.471-2.692zm0 9.526.65.375c.63-1.091 1.127-1.952 1.47-2.692.35-.752.563-1.428.6-2.16l-.75-.038-.749-.037c-.023.473-.159.952-.461 1.604-.309.665-.766 1.459-1.41 2.573zm1.97-5.01-.749.036q.01.21 0 .422l.75.037.748.037q.015-.285 0-.57zM12 2.472v.75c1.287 0 2.203.001 2.933.067.716.064 1.199.186 1.62.402l.342-.667.343-.667c-.654-.335-1.345-.489-2.171-.562-.812-.073-1.807-.072-3.067-.072zm8.25 4.764.65-.375c-.63-1.092-1.127-1.953-1.596-2.62-.477-.679-.955-1.201-1.572-1.6l-.407.63-.407.631c.398.257.745.614 1.159 1.202.421.6.88 1.392 1.523 2.507zm-3.355-4.212-.342.667q.188.097.365.211l.407-.63.407-.63a6 6 0 0 0-.494-.285zM3.75 7.237l.65.375c.643-1.115 1.102-1.908 1.523-2.507.413-.588.761-.945 1.159-1.202l-.407-.63-.407-.63c-.617.398-1.095.92-1.572 1.599-.469.667-.965 1.528-1.596 2.62zM12 2.474v-.75c-1.26 0-2.255 0-3.067.072-.826.073-1.518.227-2.17.562l.341.667.343.667c.421-.216.904-.338 1.62-.402.73-.066 1.646-.066 2.933-.066zm-5.325.799.407.63q.177-.115.365-.21l-.343-.668-.342-.667q-.255.13-.494.285zM3.75 7.237l-.65-.375c-.63 1.092-1.127 1.952-1.47 2.692-.35.752-.563 1.428-.6 2.16l.75.038.749.037c.023-.473.158-.952.46-1.604.31-.665.767-1.459 1.41-2.573zm0 9.526.65-.375c-.644-1.114-1.102-1.908-1.41-2.573-.303-.652-.438-1.131-.461-1.604l-.75.037-.748.037c.036.733.249 1.409.598 2.161.344.74.841 1.6 1.471 2.692zm-1.97-5.01-.75-.038q-.013.285 0 .57l.75-.037.749-.037a4 4 0 0 1 0-.422z"/></svg>