<svg xmlns="http://www.w3.org/2000/svg" fill="none" viewBox="0 0 24 24" width="1em" height="1em"><path fill="#414141" d="M8 9a1 1 0 1 0 2 0 1 1 0 0 0-2 0m6 6a1 1 0 1 0 2 0 1 1 0 0 0-2 0m-5.53-.53a.75.75 0 0 0 1.06 1.06L9 15zm6.717-4.596a.75.75 0 1 0-1.06-1.061l.53.53zM3.025 7.104l.667.343zm.248-.429.63.407zm0 10.65.63-.407zm-.248-.43.667-.342zm9.223 5.325.037.75zm-.496 0-.037.75zm9.223-5.324-.667-.343zm-.248.429-.63-.407zm0-10.65-.63.407zm.248.43-.667.342zM12.248 1.78l.037-.75zm-.496 0-.037-.75zM9 15l.53.53 5.657-5.656-.53-.53-.53-.531L8.47 14.47zm-6.526-3h.75c0-1.287 0-2.203.066-2.933.064-.716.186-1.199.402-1.62l-.667-.342-.667-.343c-.336.654-.489 1.345-.562 2.171-.073.812-.072 1.807-.072 3.067zm4.763-8.25-.375-.65c-1.092.63-1.953 1.127-2.62 1.596-.679.477-1.201.956-1.6 1.572l.63.407.63.407c.258-.398.615-.745 1.202-1.159.6-.421 1.393-.88 2.508-1.523zM3.025 7.105l.667.342q.097-.188.21-.365l-.63-.407-.63-.407q-.154.24-.284.494zM7.237 20.25l.375-.65c-1.115-.643-1.908-1.102-2.508-1.523-.587-.414-.944-.761-1.201-1.159l-.63.407-.63.407c.398.617.92 1.095 1.599 1.572.667.469 1.528.965 2.62 1.596zM2.474 12h-.75c0 1.26-.001 2.255.072 3.067.073.826.226 1.517.562 2.17l.667-.341.667-.343c-.216-.421-.338-.904-.402-1.62-.066-.73-.066-1.646-.066-2.933zm.799 5.325.63-.407a4 4 0 0 1-.21-.365l-.668.342-.667.343q.13.255.285.494zm13.49 2.925-.375-.65c-1.114.644-1.908 1.101-2.573 1.41-.652.303-1.131.438-1.604.461l.037.75.037.749c.733-.037 1.409-.25 2.161-.6.74-.343 1.6-.84 2.692-1.47zm-9.526 0-.375.65c1.091.63 1.952 1.128 2.692 1.47.752.35 1.427.563 2.16.6l.038-.75.037-.749c-.473-.023-.952-.158-1.604-.46-.665-.31-1.459-.767-2.573-1.41zm5.01 1.97-.036-.749q-.21.01-.422 0l-.037.75-.037.749q.285.014.57 0zM21.528 12h-.75c0 1.287-.002 2.203-.067 2.933-.064.716-.186 1.199-.402 1.62l.667.342.667.343c.335-.654.489-1.345.562-2.171.073-.812.072-1.806.072-3.067zm-4.764 8.25.375.65c1.092-.63 1.953-1.127 2.62-1.596.679-.477 1.2-.955 1.6-1.572l-.631-.407-.63-.407c-.257.398-.614.745-1.202 1.159-.6.421-1.393.88-2.507 1.523zm4.212-3.355-.667-.342a4 4 0 0 1-.211.365l.63.407.63.407q.155-.24.285-.494zM16.763 3.75l-.375.65c1.114.643 1.908 1.102 2.507 1.523.588.414.945.761 1.202 1.159l.63-.407.63-.407c-.398-.616-.92-1.095-1.599-1.572-.667-.469-1.528-.965-2.62-1.595zM21.526 12h.75c0-1.26 0-2.255-.072-3.067-.073-.826-.227-1.517-.562-2.17l-.667.342-.667.342c.216.421.338.904.402 1.62.066.73.066 1.646.066 2.933zm-.799-5.325-.63.407q.114.177.21.365l.668-.342.667-.343a6 6 0 0 0-.285-.494zM16.763 3.75l.375-.65c-1.092-.63-1.952-1.127-2.692-1.47-.752-.35-1.428-.563-2.161-.6l-.037.75-.037.749c.473.023.952.159 1.604.461.665.309 1.459.766 2.573 1.41zm-9.526 0 .375.65c1.114-.644 1.908-1.101 2.573-1.41.652-.302 1.131-.438 1.604-.461l-.037-.75-.037-.748c-.734.036-1.409.25-2.161.598-.74.344-1.6.841-2.692 1.472zm5.01-1.97.038-.75a6 6 0 0 0-.57 0l.037.75.037.749a4 4 0 0 1 .422 0z"/></svg>