<svg xmlns="http://www.w3.org/2000/svg" fill="none" viewBox="0 0 24 24" width="1em" height="1em"><path stroke="#414141" stroke-width="1.5" d="M22 8.444A4.444 4.444 0 0 0 17.556 4H6.444A4.444 4.444 0 0 0 2 8.444c0 .544.312 1.039.801 1.274l.488.234c1.718.825 1.718 3.271 0 4.096l-.488.234c-.49.235-.801.73-.801 1.274A4.444 4.444 0 0 0 6.444 20h11.112A4.444 4.444 0 0 0 22 15.556c0-.544-.312-1.039-.801-1.274l-.488-.234c-1.718-.825-1.718-3.271 0-4.096l.488-.234c.49-.235.801-.73.801-1.274Z"/><path stroke="#414141" stroke-dasharray="2 3" stroke-linecap="round" stroke-width="1.5" d="M10 4v16"/></svg>