<svg xmlns="http://www.w3.org/2000/svg" fill="none" viewBox="0 0 24 24" width="1em" height="1em"><path fill="#2D264B" fill-rule="evenodd" d="M12 1.25C6.063 1.25 1.25 6.063 1.25 12S6.063 22.75 12 22.75 22.75 17.937 22.75 12 17.937 1.25 12 1.25M12.75 8a.75.75 0 0 0-1.5 0v3.5a.75.75 0 0 1-.75.75H9a.75.75 0 0 0 0 1.5h1.5a2.25 2.25 0 0 0 2.25-2.25z" clip-rule="evenodd"/><path fill="#2D264B" d="M5.969 1.836A.75.75 0 1 0 5.03.664l-2.5 2a.75.75 0 1 0 .938 1.172zm13-1.172a.75.75 0 0 0-.937 1.172l2.5 2a.75.75 0 1 0 .936-1.172z"/></svg>