<svg xmlns="http://www.w3.org/2000/svg" fill="none" viewBox="0 0 24 24" width="1em" height="1em"><path fill="#2D264B" d="M11.733 7.962c.089-.283.445-.283.534 0 .233.74.91 1.263 1.698 1.263.077 0 .126.023.163.052a.33.33 0 0 1 .104.16c.046.146.006.281-.11.368a1.84 1.84 0 0 0-.64 2.018.317.317 0 0 1-.265.427.25.25 0 0 1-.16-.059 1.76 1.76 0 0 0-2.114 0 .25.25 0 0 1-.16.059.317.317 0 0 1-.264-.427 1.84 1.84 0 0 0-.641-2.018c-.116-.087-.156-.222-.11-.368a.33.33 0 0 1 .104-.16.25.25 0 0 1 .163-.052c.788 0 1.465-.523 1.698-1.263"/><path fill="#2D264B" fill-rule="evenodd" d="M8.223 1.531c.868-.281 1.909-.281 3.615-.281h.324c1.706 0 2.747 0 3.615.281a5.75 5.75 0 0 1 3.692 3.692l.008.027h.293c3.705 0 5.297 4.702 2.353 6.953l-.01.008-2.462 1.747a3 3 0 0 1-.284.18l-.033.084a6.4 6.4 0 0 1-1.234 1.884c-.781.795-1.59 1.148-2.882 1.71l-.086.038c-.556.243-1.119.463-1.641.623a8 8 0 0 1-.74.19v2.583H16a.75.75 0 0 1 0 1.5H8a.75.75 0 0 1 0-1.5h3.25v-2.582a8 8 0 0 1-.742-.19 16 16 0 0 1-1.641-.624l-.086-.037c-1.292-.563-2.1-.916-2.882-1.71a6.4 6.4 0 0 1-1.268-1.97 3 3 0 0 1-.277-.176l-2.467-1.75-.01-.008C-1.067 9.953.524 5.25 4.23 5.25h.292l.009-.027a5.75 5.75 0 0 1 3.691-3.692M4.283 6.75h-.052c-2.267 0-3.243 2.871-1.453 4.254l1.492 1.058c-.02-.482-.02-1.02-.02-1.646v-1.5c0-.88 0-1.58.033-2.166m15.447 5.312 1.492-1.058c1.79-1.383.814-4.254-1.453-4.254h-.052c.033.585.033 1.287.033 2.166v1.5c0 .626 0 1.164-.02 1.646m-6.032-4.55c-.53-1.683-2.867-1.683-3.396 0a.29.29 0 0 1-.267.213c-1.775 0-2.4 2.273-1.057 3.28a.34.34 0 0 1 .11.368 1.82 1.82 0 0 0 .64 2.018c.57.428 1.413.527 2.115 0a.26.26 0 0 1 .314 0 1.74 1.74 0 0 0 2.115 0 1.82 1.82 0 0 0 .64-2.018.34.34 0 0 1 .11-.368c1.343-1.007.719-3.28-1.057-3.28a.29.29 0 0 1-.267-.213" clip-rule="evenodd"/></svg>