<svg xmlns="http://www.w3.org/2000/svg" fill="none" viewBox="0 0 24 24" width="1em" height="1em"><path fill="#2D264B" d="M12 1.25A4.75 4.75 0 0 0 7.25 6v.25H4a.75.75 0 0 0 0 1.5h16a.75.75 0 0 0 0-1.5h-3.25V6A4.75 4.75 0 0 0 12 1.25m6.517 11.53-.262 1.885c-.285 2.048-.428 3.073-.73 3.895-.565 1.539-1.542 2.685-2.709 3.177C14.193 22 13.462 22 12 22s-2.193 0-2.816-.263c-1.167-.492-2.144-1.638-2.709-3.177-.302-.822-.445-1.847-.73-3.895l-.262-1.885q-.121-.868-.22-1.597c-.135-1-.202-1.5.096-1.841C5.66 9 6.172 9 7.2 9h9.602c1.027 0 1.54 0 1.84.342.299.342.231.841.096 1.84q-.099.73-.22 1.598"/></svg>