<svg xmlns="http://www.w3.org/2000/svg" fill="none" viewBox="0 0 24 24" width="1em" height="1em"><path fill="#2D264B" fill-rule="evenodd" d="M9.948 1.25c-.898 0-1.648 0-2.242.08-.628.084-1.195.27-1.65.725-.456.456-.642 1.023-.726 1.65-.08.595-.08 1.344-.08 2.243v2.575a6 6 0 0 1 .612-.158c.616-.115 1.37-.115 2.542-.115h7.192c1.173 0 1.927 0 2.542.115q.104.02.204.044.207.05.408.114V5.948c0-.898 0-1.648-.08-2.242-.084-.628-.27-1.195-.725-1.65-.456-.456-1.023-.642-1.65-.726-.595-.08-1.344-.08-2.243-.08zM10.75 5a.75.75 0 0 0-1.5 0v2a.75.75 0 0 0 1.5 0zm4 0a.75.75 0 0 0-1.5 0v2a.75.75 0 1 0 1.5 0z" clip-rule="evenodd"/><path fill="#2D264B" d="M15.5 9c1.262 0 1.954 0 2.5.103q.086.015.167.035a5 5 0 0 1 3.531 3.15l-1.712.27A49.3 49.3 0 0 1 5 12.618l-2.386-.358-.283-.045A5 5 0 0 1 6 9.103C6.547 9 7.238 9 8.5 9zM2.026 13.685C2 14.135 2 14.703 2 15.5c0 1.395 0 2.092.138 2.667a5 5 0 0 0 3.695 3.695C6.408 22 7.106 22 8.5 22h7c1.395 0 2.092 0 2.667-.138a5 5 0 0 0 3.695-3.695C22 17.592 22 16.894 22 15.5c0-.752 0-1.3-.022-1.737l-1.758.277a50.8 50.8 0 0 1-15.443.06l-2.392-.359z"/></svg>