<svg xmlns="http://www.w3.org/2000/svg" fill="none" viewBox="0 0 24 24" width="1em" height="1em"><path fill="#2D264B" d="M12.92 12.014c-1.869-3.236-1.524-6.125-1.249-7.979l.029-.191c.057-.383.113-.752.131-1.052a2.6 2.6 0 0 0-.017-.562 1.2 1.2 0 0 0-.297-.641c-.44-.475-1.06-.343-1.394-.237-.397.127-.894.38-1.496.727-5.142 2.969-6.904 9.543-3.935 14.685s9.543 6.903 14.685 3.935c.602-.348 1.069-.652 1.377-.933.26-.236.684-.706.493-1.325a1.2 1.2 0 0 0-.407-.578 2.6 2.6 0 0 0-.478-.296c-.27-.134-.616-.27-.977-.412l-.18-.07c-1.743-.69-4.418-1.835-6.286-5.071"/></svg>