<svg xmlns="http://www.w3.org/2000/svg" fill="none" viewBox="0 0 24 24" width="1em" height="1em"><path fill="#2D264B" d="m13 11.75.219.006a4.25 4.25 0 0 1 4.025 4.025c-.003.268-.005.464-.017.625l-.03.259-.066.336a4.2 4.2 0 0 1-.507 1.22l-.01.017a4 4 0 0 1-.167.244l-.023.035q-.085.114-.178.223-.115.137-.241.265a4 4 0 0 1-.213.196l-.052.045a4 4 0 0 1-.223.178l-.023.016a4 4 0 0 1-.244.165l-.025.016a4.3 4.3 0 0 1-1.217.507l-.018.005a4 4 0 0 1-.325.064l-.259.03c-.288.021-.688.023-1.406.023-.958 0-1.35-.003-1.665-.053a4.3 4.3 0 0 1-1.56-.576l-.026-.016a4 4 0 0 1-.243-.165l-.024-.016a4.3 4.3 0 0 1-.684-.632l-.045-.052a4 4 0 0 1-.178-.223l-.023-.035a4 4 0 0 1-.165-.244l-.011-.017a4.2 4.2 0 0 1-.573-1.556c-.034-.211-.043-.457-.047-.884a4.25 4.25 0 0 1 4.025-4.025L11 11.75zm-.25-8.745c.463.004.766.014 1.032.057a5 5 0 0 1 4.157 4.156C18 7.606 18 8.07 18 9v4.163a5.74 5.74 0 0 0-5-2.913h-2a5.74 5.74 0 0 0-5 2.913V9c0-.929 0-1.394.062-1.782a5 5 0 0 1 4.156-4.156c.266-.043.569-.053 1.032-.057V8a.75.75 0 0 0 1.5 0z"/></svg>