<svg xmlns="http://www.w3.org/2000/svg" fill="none" viewBox="0 0 24 24" width="1em" height="1em"><path fill="#2D264B" fill-rule="evenodd" d="M16.704 3.258a.75.75 0 0 0-1.408-.516l-.242.66c-.147.4-.528.666-.954.666-1.19 0-2.217.835-2.461 2l-.346 1.651-.176-.033c-.418-.089-.833-.27-1.858-.725l-.531-.236a5.511 5.511 0 0 0-7.694 5.816l.23 1.616 1.457 5.097a3.442 3.442 0 0 0 6.204.916l.375-.583c1.263-1.965 4.137-1.965 5.4 0l.229.357a3.934 3.934 0 0 0 7.204-1.572l.833-5.831a5.511 5.511 0 0 0-7.694-5.816l-.531.236c-1.025.456-1.44.636-1.858.725l-.053.01.277-1.32c.098-.47.513-.808.993-.808a2.515 2.515 0 0 0 2.362-1.649zM18 11a1 1 0 1 1-2 0 1 1 0 0 1 2 0m-2 2a1 1 0 1 1-2 0 1 1 0 0 1 2 0m3 1a1 1 0 1 0 0-2 1 1 0 0 0 0 2m-1 1a1 1 0 1 1-2 0 1 1 0 0 1 2 0M7.75 11a.75.75 0 0 0-1.5 0v1.25H5a.75.75 0 0 0 0 1.5h1.25V15a.75.75 0 0 0 1.5 0v-1.25H9a.75.75 0 0 0 0-1.5H7.75z" clip-rule="evenodd"/></svg>