<svg xmlns="http://www.w3.org/2000/svg" fill="none" viewBox="0 0 24 24" width="1em" height="1em"><path fill="#414141" d="m8.632 2.993-.498-.56zm6.736 0 .498-.56zm-.216-.191-.498.56zm-6.304 0 .498.56zM4.061 21.045l.44-.607zm-1.106-1.106.607-.441zm18.09 0-.607-.441zm-1.106 1.106-.44-.607zM22 7.985h-.75V13h1.5V7.985zM13 22v-.75h-2v1.5h2zM2 13h.75V7.985h-1.5V13zM15.152 2.802l-.498.56.215.192.499-.56.498-.561-.216-.192zm-6.52.191.499.561.215-.192-.498-.56-.498-.561-.216.192zM5.985 4v.75c1.16 0 2.279-.426 3.146-1.196l-.499-.56-.498-.561a3.24 3.24 0 0 1-2.15.817zm9.383-1.007-.499.561a4.74 4.74 0 0 0 3.146 1.196v-1.5c-.792 0-1.557-.29-2.15-.817zm-.216-.191.498-.561a5.494 5.494 0 0 0-7.3 0l.498.56.498.561a3.994 3.994 0 0 1 5.308 0zM11 22v-.75c-1.892 0-3.25-.001-4.302-.115-1.038-.113-1.688-.328-2.196-.697l-.44.607-.442.607c.807.586 1.75.848 2.916.974 1.152.125 2.606.124 4.464.124zm-9-9h-.75c0 1.858-.001 3.312.124 4.464.126 1.165.388 2.11.974 2.916l.607-.441.607-.441c-.37-.508-.585-1.158-.697-2.196-.114-1.052-.115-2.41-.115-4.302zm2.061 8.045.44-.607a4.3 4.3 0 0 1-.94-.94l-.606.44-.607.442a5.8 5.8 0 0 0 1.272 1.272zM22 13h-.75c0 1.892-.001 3.25-.115 4.302-.113 1.038-.328 1.688-.697 2.196l.607.44.607.442c.586-.807.848-1.751.974-2.916.125-1.152.124-2.606.124-4.464zm-9 9v.75c1.858 0 3.312.001 4.464-.124 1.165-.126 2.11-.388 2.916-.974l-.441-.607-.44-.607c-.509.37-1.16.585-2.197.697-1.052.114-2.41.115-4.302.115zm8.045-2.061-.607-.441a4.3 4.3 0 0 1-.94.94l.44.607.442.607a5.8 5.8 0 0 0 1.272-1.272zM22 7.985h.75a4.735 4.735 0 0 0-4.735-4.735v1.5a3.235 3.235 0 0 1 3.235 3.235zm-20 0h.75A3.235 3.235 0 0 1 5.985 4.75v-1.5A4.735 4.735 0 0 0 1.25 7.985zM8 13h-.75A4.75 4.75 0 0 0 12 17.75v-1.5A3.25 3.25 0 0 1 8.75 13zm4 4v.75A4.75 4.75 0 0 0 16.75 13h-1.5A3.25 3.25 0 0 1 12 16.25zm4-4h.75A4.75 4.75 0 0 0 12 8.25v1.5A3.25 3.25 0 0 1 15.25 13zm-4-4v-.75A4.75 4.75 0 0 0 7.25 13h1.5A3.25 3.25 0 0 1 12 9.75zm5-1a1 1 0 1 0 2 0 1 1 0 0 0-2 0"/></svg>